<?xml version="1.0" standalone="no"?>
<!DOCTYPE svg PUBLIC "-//W3C//DTD SVG 20010904//EN"
 "http://www.w3.org/TR/2001/REC-SVG-20010904/DTD/svg10.dtd">
<svg version="1.0" xmlns="http://www.w3.org/2000/svg"
 width="700.000000pt" height="700.000000pt" viewBox="0 0 700.000000 700.000000"
 preserveAspectRatio="xMidYMid meet">
<metadata>
Created by potrace 1.11, written by Peter Selinger 2001-2013
</metadata>
<g transform="translate(0.000000,700.000000) scale(0.100000,-0.100000)"
fill="#000000" stroke="none">
<path d="M2453 5557 c-4 -6 -7 -397 -4 -487 l1 -25 203 0 202 0 0 260 0 260
-198 0 c-109 0 -201 -3 -204 -8z"/>
<path d="M1280 4999 c-78 -77 -140 -142 -138 -144 2 -2 87 -89 190 -192 l187
-189 146 146 145 145 -188 188 c-103 103 -190 187 -194 187 -4 0 -71 -63 -148
-141z"/>
<path d="M3618 4952 l-187 -188 145 -145 145 -145 187 188 c103 104 189 190
190 193 5 5 -276 285 -286 285 -4 0 -91 -85 -194 -188z"/>
<path d="M2617 4904 c-1 -1 -33 -4 -72 -8 -564 -47 -1019 -490 -1083 -1056 -9
-79 -8 -244 2 -295 4 -16 9 -48 12 -70 10 -69 73 -247 116 -325 74 -136 113
-187 234 -305 l81 -80 -18 -40 c-53 -115 -86 -278 -86 -427 0 -286 107 -547
306 -749 162 -164 352 -264 576 -304 122 -21 3070 -21 3165 0 289 66 511 288
576 576 14 61 13 236 -2 299 -58 250 -223 447 -449 535 l-70 27 1 144 c1 79
-2 163 -6 186 -5 24 -11 64 -14 89 -3 25 -15 80 -26 122 -132 503 -498 910
-984 1092 -79 29 -207 63 -269 71 -23 3 -58 9 -77 13 -105 22 -437 7 -538 -23
-9 -3 -30 -7 -45 -10 -40 -7 -186 -55 -218 -72 l-27 -14 -59 87 c-59 89 -181
221 -263 285 -192 151 -453 243 -717 252 -25 0 -45 0 -46 0z m189 -429 c201
-42 391 -170 498 -338 40 -62 39 -68 -9 -107 -61 -50 -180 -177 -236 -253 -69
-92 -157 -245 -195 -338 l-26 -66 -72 -7 c-199 -18 -439 -117 -580 -240 -25
-23 -30 -24 -50 -11 -30 20 -97 94 -134 147 -108 158 -156 368 -129 567 29
214 171 426 363 544 69 43 190 92 248 101 22 4 41 8 43 10 12 11 210 5 279 -9z
m1809 -510 c207 -54 386 -156 535 -305 82 -81 180 -205 180 -228 0 -6 4 -12 8
-14 12 -5 76 -143 101 -218 43 -127 58 -235 56 -385 -2 -77 -6 -153 -9 -170
-4 -16 -9 -43 -13 -60 -4 -16 -8 -34 -9 -40 -1 -5 -7 -30 -14 -55 -7 -25 -14
-56 -17 -69 -2 -13 -10 -51 -18 -83 l-13 -59 71 6 c191 15 262 15 315 -1 99
-28 174 -92 216 -183 16 -35 21 -66 21 -131 0 -74 -4 -92 -29 -143 -35 -68
-94 -126 -163 -159 l-48 -23 -1495 -2 c-1669 -2 -1563 -7 -1717 69 -228 111
-368 348 -359 608 6 181 68 323 197 450 159 157 363 212 627 170 72 -11 105
-13 108 -6 2 6 17 65 34 131 39 149 60 208 113 310 133 255 388 474 657 564
142 47 234 60 405 56 132 -3 177 -8 260 -30z"/>
<path d="M766 3701 c1 -108 2 -200 3 -206 1 -8 418 -12 506 -6 7 1 11 71 10
204 l0 202 -260 1 -260 1 1 -196z"/>
<path d="M1326 2727 l-188 -189 145 -145 145 -146 190 190 190 190 -118 119
c-65 66 -131 131 -146 145 l-29 26 -189 -190z"/>
</g>
</svg>
